<?xml version="1.0" encoding="UTF-8" standalone="no"?>
<svg
   xmlns:dc="http://purl.org/dc/elements/1.1/"
   xmlns:cc="http://creativecommons.org/ns#"
   xmlns:rdf="http://www.w3.org/1999/02/22-rdf-syntax-ns#"
   xmlns:svg="http://www.w3.org/2000/svg"
   xmlns="http://www.w3.org/2000/svg"
   xmlns:sodipodi="http://sodipodi.sourceforge.net/DTD/sodipodi-0.dtd"
   xmlns:inkscape="http://www.inkscape.org/namespaces/inkscape"
   id="svg8"
   version="1.1"
   viewBox="0 0 210 131.08501"
   height="131.08501mm"
   width="210mm"
   sodipodi:docname="logo.svg"
   inkscape:version="0.92.3 (2405546, 2018-03-11)">
  <sodipodi:namedview
     pagecolor="#ffffff"
     bordercolor="#666666"
     borderopacity="1"
     objecttolerance="10"
     gridtolerance="10"
     guidetolerance="10"
     inkscape:pageopacity="0"
     inkscape:pageshadow="2"
     inkscape:window-width="1920"
     inkscape:window-height="1001"
     id="namedview14"
     showgrid="false"
     inkscape:zoom="0.5"
     inkscape:cx="-138.47923"
     inkscape:cy="185.37622"
     inkscape:window-x="-9"
     inkscape:window-y="-9"
     inkscape:window-maximized="1"
     inkscape:current-layer="g2248" />
  <defs
     id="defs2" />
  <metadata
     id="metadata5">
    <rdf:RDF>
      <cc:Work
         rdf:about="">
        <dc:format>image/svg+xml</dc:format>
        <dc:type
           rdf:resource="http://purl.org/dc/dcmitype/StillImage" />
        <dc:title />
      </cc:Work>
    </rdf:RDF>
  </metadata>
  <g
     id="layer1"
     transform="matrix(1.5060722,0,0,1.5060722,-56.221861,-139.96102)">
    <g
       id="g2248"
       transform="matrix(0.28222223,0,0,0.28222223,1481.0635,639.09858)">
      <path
         sodipodi:type="inkscape:offset"
         inkscape:radius="0"
         inkscape:original="M -5115.5898 -1760.7207 L -5115.5898 -1729.2285 L -5084.0996 -1729.2285 L -5084.0996 -1760.7207 L -5115.5898 -1760.7207 z "
         style="opacity:1;fill:#d81111;fill-opacity:1;stroke:none;stroke-width:0.48391271;stroke-linecap:square;stroke-linejoin:round;stroke-miterlimit:4;stroke-dasharray:none;stroke-dashoffset:0;stroke-opacity:1;paint-order:normal"
         id="rect5857-1"
         d="m -5115.5898,-1760.7207 v 31.4922 h 31.4902 v -31.4922 z" />
      <path
         sodipodi:type="inkscape:offset"
         inkscape:radius="0"
         inkscape:original="M -5115.5898 -1709.627 L -5115.5898 -1678.1348 L -5084.0996 -1678.1348 L -5084.0996 -1709.627 L -5115.5898 -1709.627 z "
         style="opacity:1;fill:#d81111;fill-opacity:1;stroke:none;stroke-width:0.48391271;stroke-linecap:square;stroke-linejoin:round;stroke-miterlimit:4;stroke-dasharray:none;stroke-dashoffset:0;stroke-opacity:1;paint-order:normal"
         id="rect5859-20"
         d="m -5115.5898,-1709.627 v 31.4922 h 31.4902 v -31.4922 z" />
      <path
         sodipodi:type="inkscape:offset"
         inkscape:radius="0"
         inkscape:original="M -5115.5898 -1658.5312 L -5115.5898 -1627.0391 L -5084.0996 -1627.0391 L -5084.0996 -1658.5312 L -5115.5898 -1658.5312 z "
         style="opacity:1;fill:#d81111;fill-opacity:1;stroke:none;stroke-width:0.48391271;stroke-linecap:square;stroke-linejoin:round;stroke-miterlimit:4;stroke-dasharray:none;stroke-dashoffset:0;stroke-opacity:1;paint-order:normal"
         id="rect5861-0"
         d="m -5115.5898,-1658.5312 v 31.4921 h 31.4902 v -31.4921 z" />
      <g
         aria-label="press"
         style="font-style:normal;font-variant:normal;font-weight:normal;font-stretch:normal;font-size:183.64025879px;line-height:125%;font-family:Colfax;-inkscape-font-specification:Colfax;letter-spacing:0px;word-spacing:0px;fill:#0f0a0a;fill-opacity:1;stroke:none;stroke-width:0.9564597px;stroke-linecap:butt;stroke-linejoin:miter;stroke-opacity:1"
         id="text5879-10">
        <path
           sodipodi:type="inkscape:offset"
           inkscape:radius="0"
           inkscape:original="M -5006.293 -1762.5957 C -5018.0096 -1762.5957 -5028.2914 -1758.1714 -5037.1387 -1749.3242 L -5037.1387 -1760.084 L -5061.4395 -1760.084 L -5061.4395 -1626.8379 L -5037.1387 -1626.8379 L -5037.1387 -1672.8379 C -5028.1121 -1664.2895 -5018.0688 -1660.0156 -5007.0098 -1660.0156 C -4993.4998 -1660.0156 -4982.2618 -1665.2157 -4973.2949 -1675.6172 C -4964.7466 -1685.6002 -4960.4727 -1697.4357 -4960.4727 -1711.125 C -4960.4727 -1725.173 -4964.538 -1737.0986 -4972.668 -1746.9023 C -4981.3358 -1757.3636 -4992.5438 -1762.5957 -5006.293 -1762.5957 z M -4903.5332 -1762.5957 C -4913.2173 -1762.5957 -4920.3619 -1757.6642 -4924.9648 -1747.8008 L -4924.9648 -1760.084 L -4945.9473 -1760.084 L -4945.9473 -1662.5254 L -4921.6465 -1662.5254 L -4921.6465 -1701.9805 L -4921.7363 -1706.7324 C -4921.9755 -1719.9436 -4920.6604 -1729.0888 -4917.791 -1734.1699 C -4915.2205 -1738.8327 -4912.0532 -1741.1641 -4908.2871 -1741.1641 C -4906.434 -1741.1641 -4904.0725 -1740.4465 -4901.2031 -1739.0117 L -4893.5801 -1760.084 C -4897.0473 -1761.7578 -4900.3649 -1762.5957 -4903.5332 -1762.5957 z M -4835.4766 -1762.5957 C -4850.1821 -1762.5957 -4862.2861 -1757.6342 -4871.791 -1747.7109 C -4881.236 -1737.8475 -4885.959 -1725.5329 -4885.959 -1710.7676 C -4885.959 -1695.8228 -4881.0877 -1683.6266 -4871.3438 -1674.1816 C -4861.5401 -1664.7366 -4849.1353 -1660.0156 -4834.1309 -1660.0156 C -4814.8223 -1660.0156 -4800.1464 -1667.1582 -4790.1035 -1681.4453 L -4810.7285 -1691.1289 C -4817.3042 -1684.7326 -4825.1644 -1681.5352 -4834.3105 -1681.5352 C -4841.7231 -1681.5352 -4847.9395 -1683.5077 -4852.9609 -1687.4531 C -4857.9823 -1691.4583 -4861.0916 -1697.0472 -4862.2871 -1704.2207 L -4783.6484 -1704.2207 L -4783.5586 -1708.8848 C -4783.2597 -1724.7262 -4788.0709 -1737.7282 -4797.9941 -1747.8906 C -4807.6185 -1757.6943 -4820.1134 -1762.5957 -4835.4766 -1762.5957 z M -4736.123 -1762.5957 C -4744.7312 -1762.5957 -4752.0542 -1760.1139 -4758.0918 -1755.1523 C -4764.6077 -1749.832 -4767.8652 -1742.9881 -4767.8652 -1734.6191 C -4767.8652 -1722.6036 -4759.975 -1712.6506 -4744.1934 -1704.7598 L -4735.9434 -1700.6348 C -4728.8297 -1697.1078 -4725.2734 -1693.4313 -4725.2734 -1689.6055 C -4725.2734 -1687.1545 -4726.4983 -1685.182 -4728.9492 -1683.6875 C -4731.0415 -1682.4919 -4733.4029 -1681.8945 -4736.0332 -1681.8945 C -4743.2067 -1681.8945 -4749.9924 -1685.6292 -4756.3887 -1693.1016 L -4771.4531 -1676.6934 C -4762.9645 -1665.5745 -4751.6062 -1660.0156 -4737.3789 -1660.0156 C -4727.5752 -1660.0156 -4719.4143 -1662.5856 -4712.8984 -1667.7266 C -4705.7848 -1673.3458 -4702.2285 -1680.9073 -4702.2285 -1690.4121 C -4702.2285 -1698.004 -4704.6501 -1704.461 -4709.4922 -1709.7812 C -4713.0789 -1713.7266 -4718.9064 -1717.7018 -4726.9766 -1721.707 L -4735.9434 -1726.1895 C -4741.8017 -1729.1186 -4744.7324 -1731.8389 -4744.7324 -1734.3496 C -4744.7324 -1738.4145 -4741.8017 -1740.4473 -4735.9434 -1740.4473 C -4730.922 -1740.4473 -4725.333 -1737.3982 -4719.1758 -1731.3008 L -4704.0215 -1746.4551 C -4712.0318 -1757.2152 -4722.7326 -1762.5957 -4736.123 -1762.5957 z M -4655.4219 -1762.5957 C -4664.03 -1762.5957 -4671.353 -1760.1139 -4677.3906 -1755.1523 C -4683.9066 -1749.832 -4687.1641 -1742.9881 -4687.1641 -1734.6191 C -4687.1641 -1722.6036 -4679.2738 -1712.6506 -4663.4922 -1704.7598 L -4655.2422 -1700.6348 C -4648.1285 -1697.1078 -4644.5723 -1693.4313 -4644.5723 -1689.6055 C -4644.5723 -1687.1545 -4645.7971 -1685.182 -4648.248 -1683.6875 C -4650.3403 -1682.4919 -4652.7018 -1681.8945 -4655.332 -1681.8945 C -4662.5055 -1681.8945 -4669.2912 -1685.6292 -4675.6875 -1693.1016 L -4690.752 -1676.6934 C -4682.2634 -1665.5745 -4670.9051 -1660.0156 -4656.6777 -1660.0156 C -4646.874 -1660.0156 -4638.7131 -1662.5856 -4632.1973 -1667.7266 C -4625.0836 -1673.3458 -4621.5273 -1680.9073 -4621.5273 -1690.4121 C -4621.5273 -1698.004 -4623.9489 -1704.461 -4628.791 -1709.7812 C -4632.3777 -1713.7266 -4638.2053 -1717.7018 -4646.2754 -1721.707 L -4655.2422 -1726.1895 C -4661.1005 -1729.1186 -4664.0312 -1731.8389 -4664.0312 -1734.3496 C -4664.0313 -1738.4145 -4661.1005 -1740.4473 -4655.2422 -1740.4473 C -4650.2208 -1740.4473 -4644.6318 -1737.3982 -4638.4746 -1731.3008 L -4623.3203 -1746.4551 C -4631.3306 -1757.2152 -4642.0314 -1762.5957 -4655.4219 -1762.5957 z M -4834.3105 -1741.8828 C -4828.2729 -1741.8828 -4822.8323 -1740.239 -4817.9902 -1736.9512 C -4813.1482 -1733.6633 -4809.8906 -1729.179 -4808.2168 -1723.5 L -4861.2109 -1723.5 C -4858.4611 -1729.5377 -4855.4722 -1733.7514 -4852.2441 -1736.1426 C -4847.1032 -1739.9684 -4841.1253 -1741.8828 -4834.3105 -1741.8828 z M -5011.4043 -1739.998 C -5003.394 -1739.998 -4996.939 -1737.1895 -4992.0371 -1731.5703 C -4987.2548 -1726.1902 -4984.8633 -1719.4647 -4984.8633 -1711.3945 C -4984.8633 -1703.3842 -4987.2548 -1696.6285 -4992.0371 -1691.1289 C -4997.0585 -1685.3304 -5003.5135 -1682.4316 -5011.4043 -1682.4316 C -5019.5342 -1682.4316 -5026.1094 -1685.2722 -5031.1309 -1690.9512 C -5035.8533 -1696.391 -5038.2148 -1703.2349 -5038.2148 -1711.4844 C -5038.2148 -1719.674 -5035.8233 -1726.4297 -5031.041 -1731.75 C -5026.0196 -1737.2497 -5019.4744 -1739.998 -5011.4043 -1739.998 z "
           style="font-style:normal;font-variant:normal;font-weight:bold;font-stretch:normal;font-family:'Levenim MT';-inkscape-font-specification:'Levenim MT Bold';fill:#0f0a0a;fill-opacity:1;stroke-width:0.9564597px"
           id="path957"
           d="m -5006.293,-1762.5957 c -11.7166,0 -21.9984,4.4243 -30.8457,13.2715 v -10.7598 h -24.3008 v 133.2461 h 24.3008 v -46 c 9.0266,8.5484 19.0699,12.8223 30.1289,12.8223 13.51,0 24.748,-5.2001 33.7149,-15.6016 8.5483,-9.983 12.8222,-21.8185 12.8222,-35.5078 0,-14.048 -4.0653,-25.9736 -12.1953,-35.7773 -8.6678,-10.4613 -19.8758,-15.6934 -33.625,-15.6934 z m 102.7598,0 c -9.6841,0 -16.8287,4.9315 -21.4316,14.7949 v -12.2832 h -20.9825 v 97.5586 h 24.3008 v -39.4551 l -0.09,-4.7519 c -0.2392,-13.2112 1.0759,-22.3564 3.9453,-27.4375 2.5705,-4.6628 5.7378,-6.9942 9.5039,-6.9942 1.8531,0 4.2146,0.7176 7.084,2.1524 l 7.623,-21.0723 c -3.4672,-1.6738 -6.7848,-2.5117 -9.9531,-2.5117 z m 68.0566,0 c -14.7055,0 -26.8095,4.9615 -36.3144,14.8848 -9.445,9.8634 -14.168,22.178 -14.168,36.9433 0,14.9448 4.8713,27.141 14.6152,36.586 9.8037,9.445 22.2085,14.166 37.2129,14.166 19.3086,0 33.9845,-7.1426 44.0274,-21.4297 l -20.625,-9.6836 c -6.5757,6.3963 -14.4359,9.5937 -23.582,9.5937 -7.4126,0 -13.629,-1.9725 -18.6504,-5.9179 -5.0214,-4.0052 -8.1307,-9.5941 -9.3262,-16.7676 h 78.6387 l 0.09,-4.6641 c 0.2989,-15.8414 -4.5123,-28.8434 -14.4355,-39.0058 -9.6244,-9.8037 -22.1193,-14.7051 -37.4825,-14.7051 z m 99.3536,0 c -8.6082,0 -15.9312,2.4818 -21.9688,7.4434 -6.5159,5.3203 -9.7734,12.1642 -9.7734,20.5332 0,12.0155 7.8902,21.9685 23.6718,29.8593 l 8.25,4.125 c 7.1137,3.527 10.67,7.2035 10.67,11.0293 0,2.451 -1.2249,4.4235 -3.6758,5.918 -2.0923,1.1956 -4.4537,1.793 -7.084,1.793 -7.1735,0 -13.9592,-3.7347 -20.3555,-11.2071 l -15.0644,16.4082 c 8.4886,11.1189 19.8469,16.6778 34.0742,16.6778 9.8037,0 17.9646,-2.57 24.4805,-7.711 7.1136,-5.6192 10.6699,-13.1807 10.6699,-22.6855 0,-7.5919 -2.4216,-14.0489 -7.2637,-19.3691 -3.5867,-3.9454 -9.4142,-7.9206 -17.4844,-11.9258 l -8.9668,-4.4825 c -5.8583,-2.9291 -8.789,-5.6494 -8.789,-8.1601 0,-4.0649 2.9307,-6.0977 8.789,-6.0977 5.0214,0 10.6104,3.0491 16.7676,9.1465 l 15.1543,-15.1543 c -8.0103,-10.7601 -18.7111,-16.1406 -32.1015,-16.1406 z m 80.7011,0 c -8.6081,0 -15.9311,2.4818 -21.9687,7.4434 -6.516,5.3203 -9.7735,12.1642 -9.7735,20.5332 0,12.0155 7.8903,21.9685 23.6719,29.8593 l 8.25,4.125 c 7.1137,3.527 10.6699,7.2035 10.6699,11.0293 0,2.451 -1.2248,4.4235 -3.6757,5.918 -2.0923,1.1956 -4.4538,1.793 -7.084,1.793 -7.1735,0 -13.9592,-3.7347 -20.3555,-11.2071 l -15.0645,16.4082 c 8.4886,11.1189 19.8469,16.6778 34.0743,16.6778 9.8037,0 17.9646,-2.57 24.4804,-7.711 7.1137,-5.6192 10.67,-13.1807 10.67,-22.6855 0,-7.5919 -2.4216,-14.0489 -7.2637,-19.3691 -3.5867,-3.9454 -9.4143,-7.9206 -17.4844,-11.9258 l -8.9668,-4.4825 c -5.8583,-2.9291 -8.789,-5.6494 -8.789,-8.1601 -10e-5,-4.0649 2.9307,-6.0977 8.789,-6.0977 5.0214,0 10.6104,3.0491 16.7676,9.1465 l 15.1543,-15.1543 c -8.0103,-10.7601 -18.7111,-16.1406 -32.1016,-16.1406 z m -178.8886,20.7129 c 6.0376,0 11.4782,1.6438 16.3203,4.9316 4.842,3.2879 8.0996,7.7722 9.7734,13.4512 h -52.9941 c 2.7498,-6.0377 5.7387,-10.2514 8.9668,-12.6426 5.1409,-3.8258 11.1188,-5.7402 17.9336,-5.7402 z m -177.0938,1.8848 c 8.0103,0 14.4653,2.8085 19.3672,8.4277 4.7823,5.3801 7.1738,12.1056 7.1738,20.1758 0,8.0103 -2.3915,14.766 -7.1738,20.2656 -5.0214,5.7985 -11.4764,8.6973 -19.3672,8.6973 -8.1299,0 -14.7051,-2.8406 -19.7266,-8.5196 -4.7224,-5.4398 -7.0839,-12.2837 -7.0839,-20.5332 0,-8.1896 2.3915,-14.9453 7.1738,-20.2656 5.0214,-5.4997 11.5666,-8.248 19.6367,-8.248 z" />
      </g>
      <g
         aria-label="hack"
         style="font-style:normal;font-variant:normal;font-weight:normal;font-stretch:normal;font-size:200.84159851px;line-height:125%;font-family:Colfax;-inkscape-font-specification:Colfax;letter-spacing:0px;word-spacing:0px;fill:#d81111;fill-opacity:1;stroke:none;stroke-width:1.04604995px;stroke-linecap:butt;stroke-linejoin:miter;stroke-opacity:1"
         id="text5946-9">
        <path
           sodipodi:type="inkscape:offset"
           inkscape:radius="0"
           inkscape:original="M -5066.8516 -1935.2402 L -5115.5898 -1932.6895 L -5115.5898 -1925.5312 C -5113.6284 -1925.4006 -5111.4062 -1925.0738 -5108.9219 -1924.5508 C -5106.4375 -1924.0931 -5104.5419 -1923.4378 -5103.2344 -1922.5879 C -5101.4692 -1921.4111 -5100.0959 -1919.6466 -5099.1152 -1917.293 C -5098.1346 -1914.9394 -5097.6445 -1912.7171 -5097.6445 -1910.625 L -5097.6445 -1801.2793 C -5097.6445 -1798.8603 -5098.0358 -1796.8982 -5098.8203 -1795.3945 C -5099.5394 -1793.9562 -5100.945 -1792.8451 -5103.0371 -1792.0605 C -5104.2792 -1791.6029 -5105.719 -1791.2762 -5107.3535 -1791.0801 C -5108.9226 -1790.8839 -5110.556 -1790.7206 -5112.2559 -1790.5898 L -5112.2559 -1783.4316 L -5052.6309 -1783.4316 L -5052.6309 -1790.5898 C -5054.1346 -1790.786 -5055.7034 -1791.1126 -5057.3379 -1791.5703 C -5058.907 -1792.0279 -5060.1834 -1792.5522 -5061.1641 -1793.1406 C -5062.7985 -1794.056 -5063.9096 -1795.1993 -5064.498 -1796.5723 C -5065.0864 -1798.0106 -5065.3809 -1799.9385 -5065.3809 -1802.3574 L -5065.3809 -1855.0195 C -5064.5963 -1856.0656 -5063.6486 -1857.2755 -5062.5371 -1858.6484 C -5061.3603 -1860.0214 -5059.8237 -1861.3623 -5057.9277 -1862.6699 C -5055.7702 -1864.1736 -5053.5802 -1865.317 -5051.3574 -1866.1016 C -5049.0692 -1866.8861 -5046.6171 -1867.2793 -5044.002 -1867.2793 C -5039.3601 -1867.2793 -5035.7968 -1865.6116 -5033.3125 -1862.2773 C -5030.7628 -1858.9431 -5029.4883 -1853.9098 -5029.4883 -1847.1758 L -5029.4883 -1801.2793 C -5029.4883 -1798.5988 -5029.7827 -1796.5722 -5030.3711 -1795.1992 C -5030.8941 -1793.8263 -5031.8419 -1792.7797 -5033.2148 -1792.0605 C -5034.0648 -1791.6029 -5035.3715 -1791.2762 -5037.1367 -1791.0801 C -5038.9019 -1790.8839 -5040.4385 -1790.7206 -5041.7461 -1790.5898 L -5041.7461 -1783.4316 L -4982.709 -1783.4316 L -4982.709 -1790.5898 C -4984.8011 -1790.8513 -4986.5675 -1791.178 -4988.0059 -1791.5703 C -4989.4441 -1791.9626 -4990.7509 -1792.4204 -4991.9277 -1792.9434 C -4993.8891 -1793.7933 -4995.2301 -1794.9387 -4995.9492 -1796.377 C -4996.6684 -1797.8153 -4997.0273 -1799.7431 -4997.0273 -1802.1621 L -4997.0273 -1850.2148 C -4997.0273 -1860.1523 -4999.7074 -1868.162 -5005.0684 -1874.2422 C -5010.364 -1880.3223 -5018.3072 -1883.3613 -5028.8984 -1883.3613 C -5033.4095 -1883.3613 -5037.6262 -1882.8067 -5041.5488 -1881.6953 C -5045.4062 -1880.5839 -5048.5458 -1879.243 -5050.9648 -1877.6738 C -5053.8414 -1875.8433 -5056.2916 -1874.0122 -5058.3184 -1872.1816 C -5060.2797 -1870.4164 -5062.5039 -1868.4221 -5064.9883 -1866.1992 L -5065.3809 -1866.1992 L -5065.3809 -1933.6699 L -5066.8516 -1935.2402 z M -4704.002 -1935.2402 L -4752.7422 -1932.6895 L -4752.7422 -1925.5312 C -4750.7155 -1925.4006 -4748.4589 -1925.0738 -4745.9746 -1924.5508 C -4743.4902 -1924.0277 -4741.627 -1923.3724 -4740.3848 -1922.5879 C -4738.5542 -1921.4111 -4737.1828 -1919.6466 -4736.2676 -1917.293 C -4735.2869 -1915.0047 -4734.7949 -1912.7825 -4734.7949 -1910.625 L -4734.7949 -1801.2793 C -4734.7949 -1798.8603 -4735.1881 -1796.8982 -4735.9727 -1795.3945 C -4736.6918 -1793.8908 -4738.0973 -1792.7797 -4740.1895 -1792.0605 C -4741.4317 -1791.6683 -4742.8695 -1791.3416 -4744.5039 -1791.0801 C -4746.1384 -1790.8839 -4747.7737 -1790.7206 -4749.4082 -1790.5898 L -4749.4082 -1783.4316 L -4688.7031 -1783.4316 L -4688.7031 -1790.5898 C -4690.2722 -1790.7206 -4691.843 -1790.9827 -4693.4121 -1791.375 C -4694.9812 -1791.7673 -4696.3525 -1792.225 -4697.5293 -1792.748 C -4699.4906 -1793.4672 -4700.8316 -1794.5784 -4701.5508 -1796.082 C -4702.2046 -1797.5858 -4702.5312 -1799.5136 -4702.5312 -1801.8672 L -4702.5312 -1823.2461 L -4696.6484 -1828.248 C -4692.4642 -1822.2986 -4688.0178 -1815.8255 -4683.3105 -1808.8301 C -4678.6033 -1801.9 -4673.4047 -1793.4345 -4667.7168 -1783.4316 L -4621.5273 -1783.4316 L -4621.5273 -1790.5898 C -4624.5347 -1790.8513 -4627.5434 -1791.5047 -4630.5508 -1792.5508 C -4633.5582 -1793.5968 -4636.0748 -1795.6577 -4638.1016 -1798.7305 C -4644.051 -1807.5565 -4649.7397 -1815.9251 -4655.166 -1823.8359 C -4660.5924 -1831.7467 -4666.5089 -1840.3433 -4672.916 -1849.627 C -4669.6471 -1852.5036 -4666.7695 -1854.8892 -4664.2852 -1856.7852 C -4661.7354 -1858.7465 -4659.12 -1860.6097 -4656.4395 -1862.375 C -4652.386 -1865.0555 -4648.6594 -1867.1809 -4645.2598 -1868.75 C -4641.7947 -1870.3845 -4636.7937 -1872.1167 -4630.2559 -1873.9473 L -4630.2559 -1880.7148 L -4680.0742 -1880.7148 L -4680.0742 -1873.752 C -4675.9554 -1873.1635 -4672.8822 -1872.4759 -4670.8555 -1871.6914 C -4668.7633 -1870.9069 -4667.7168 -1869.9268 -4667.7168 -1868.75 C -4667.7168 -1868.4885 -4667.8478 -1867.7687 -4668.1094 -1866.5918 C -4668.3055 -1865.4804 -4669.4832 -1863.8127 -4671.6406 -1861.5898 C -4675.3018 -1857.8633 -4680.1718 -1853.1567 -4686.252 -1847.4688 C -4692.2668 -1841.7808 -4697.6934 -1836.7798 -4702.5312 -1832.4648 L -4702.5312 -1933.6699 L -4704.002 -1935.2402 z M -4922.8887 -1883.5586 C -4927.4651 -1883.5586 -4932.4339 -1883.0021 -4937.7949 -1881.8906 C -4943.1559 -1880.8446 -4947.8949 -1879.3403 -4952.0137 -1877.3789 C -4956.1979 -1875.483 -4959.7611 -1873.065 -4962.7031 -1870.123 C -4965.5798 -1867.2464 -4967.0195 -1863.9776 -4967.0195 -1860.3164 C -4967.0195 -1856.0669 -4965.614 -1852.6005 -4962.8027 -1849.9199 C -4959.9915 -1847.3048 -4955.8394 -1845.998 -4950.3477 -1845.998 C -4946.4903 -1845.998 -4943.647 -1846.357 -4941.8164 -1847.0762 C -4939.9205 -1847.7953 -4938.2205 -1848.8096 -4936.7168 -1850.1172 C -4935.6054 -1851.0979 -4934.7544 -1852.4047 -4934.166 -1854.0391 C -4933.5776 -1855.7389 -4933.2832 -1857.1445 -4933.2832 -1858.2559 C -4933.2832 -1860.7403 -4933.7411 -1863.3234 -4934.6562 -1866.0039 C -4935.5715 -1868.6844 -4936.1281 -1870.6788 -4936.3242 -1871.9863 C -4935.1474 -1872.8363 -4933.6108 -1873.653 -4931.7148 -1874.4375 C -4929.7535 -1875.2874 -4927.3337 -1875.7129 -4924.457 -1875.7129 C -4921.2535 -1875.7129 -4918.6723 -1874.993 -4916.7109 -1873.5547 C -4914.7496 -1872.1164 -4913.3098 -1870.3518 -4912.3945 -1868.2598 C -4911.5446 -1866.4292 -4910.99 -1864.1727 -4910.7285 -1861.4922 C -4910.467 -1858.8117 -4910.3359 -1856.654 -4910.3359 -1855.0195 L -4910.3359 -1845.6055 C -4914.1279 -1843.7749 -4920.1432 -1841.6837 -4928.3809 -1839.3301 C -4936.6185 -1837.0418 -4943.6785 -1834.8176 -4949.5625 -1832.6602 C -4952.6353 -1831.4834 -4955.4785 -1830.2089 -4958.0938 -1828.8359 C -4960.6435 -1827.463 -4962.9 -1825.7308 -4964.8613 -1823.6387 C -4967.0188 -1821.3505 -4968.6865 -1818.7027 -4969.8633 -1815.6953 C -4971.0401 -1812.7533 -4971.627 -1809.1578 -4971.627 -1804.9082 C -4971.627 -1797.5205 -4968.9469 -1791.5716 -4963.5859 -1787.0605 C -4958.2249 -1782.6148 -4951.7538 -1780.3906 -4944.1699 -1780.3906 C -4939.0705 -1780.3906 -4935.114 -1780.7516 -4932.3027 -1781.4707 C -4929.4261 -1782.1245 -4926.4516 -1783.1691 -4923.3789 -1784.6074 C -4921.0253 -1785.7188 -4918.8353 -1787.0598 -4916.8086 -1788.6289 C -4914.7165 -1790.198 -4912.5588 -1792.0935 -4910.3359 -1794.3164 L -4909.748 -1794.3164 C -4908.3751 -1789.8707 -4905.7919 -1786.4385 -4902 -1784.0195 C -4898.2081 -1781.6659 -4892.2915 -1780.4902 -4884.25 -1780.4902 C -4879.8697 -1780.4902 -4875.7177 -1781.0126 -4871.7949 -1782.0586 C -4867.8723 -1783.1047 -4864.4723 -1784.248 -4861.5957 -1785.4902 L -4861.5957 -1792.6504 C -4863.557 -1792.6504 -4865.749 -1792.6827 -4868.168 -1792.748 C -4870.5216 -1792.8788 -4872.2538 -1793.2055 -4873.3652 -1793.7285 C -4875.1958 -1794.5784 -4876.5691 -1795.8529 -4877.4844 -1797.5527 C -4878.3343 -1799.2526 -4878.7578 -1801.5736 -4878.7578 -1804.5156 C -4878.7578 -1807.7192 -4878.6268 -1814.3879 -4878.3652 -1824.5215 C -4878.0384 -1834.6551 -4877.875 -1843.415 -4877.875 -1850.8027 C -4877.875 -1857.7982 -4879.0849 -1863.4545 -4881.5039 -1867.7695 C -4883.8575 -1872.1499 -4887.0618 -1875.4833 -4891.1152 -1877.7715 C -4895.3648 -1880.1251 -4900.136 -1881.6617 -4905.4316 -1882.3809 C -4910.7272 -1883.1654 -4916.547 -1883.5586 -4922.8887 -1883.5586 z M -4796.3828 -1883.5586 C -4804.9473 -1883.5586 -4812.7918 -1882.1189 -4819.918 -1879.2422 C -4826.9788 -1876.4309 -4832.8954 -1872.6398 -4837.668 -1867.8672 C -4842.3098 -1863.2254 -4846.0041 -1857.8311 -4848.75 -1851.6855 C -4851.4305 -1845.54 -4852.7695 -1839.0689 -4852.7695 -1832.2695 C -4852.7695 -1824.8165 -4851.6584 -1817.9178 -4849.4355 -1811.5762 C -4847.2127 -1805.2344 -4843.847 -1799.7434 -4839.3359 -1795.1016 C -4834.8249 -1790.5251 -4829.104 -1786.8954 -4822.1738 -1784.2148 C -4815.1784 -1781.5997 -4807.1364 -1780.293 -4798.0488 -1780.293 C -4792.4263 -1780.293 -4787.4898 -1780.9786 -4783.2402 -1782.3516 C -4778.9906 -1783.7245 -4774.8063 -1785.7531 -4770.6875 -1788.4336 C -4766.7648 -1790.9833 -4763.3991 -1793.8912 -4760.5879 -1797.1602 C -4757.7766 -1800.4944 -4755.3568 -1804.1565 -4753.3301 -1808.1445 L -4760.6855 -1813.2441 C -4764.0198 -1807.2947 -4767.8452 -1802.6849 -4772.1602 -1799.416 C -4776.4097 -1796.2125 -4782.1629 -1794.6113 -4789.4199 -1794.6113 C -4797.0038 -1794.6113 -4803.5415 -1798.1745 -4809.0332 -1805.3008 C -4814.4596 -1812.427 -4817.1719 -1821.808 -4817.1719 -1833.4453 C -4817.1719 -1841.16 -4816.5831 -1847.7641 -4815.4062 -1853.2559 C -4814.1641 -1858.7477 -4812.5306 -1863.1276 -4810.5039 -1866.3965 C -4808.4118 -1869.8616 -4806.1553 -1872.2794 -4803.7363 -1873.6523 C -4801.3173 -1875.0253 -4798.6373 -1875.7129 -4795.6953 -1875.7129 C -4793.3417 -1875.7129 -4791.6095 -1875.3862 -4790.498 -1874.7324 C -4789.3866 -1874.144 -4788.4711 -1873.2608 -4787.752 -1872.084 C -4787.9481 -1870.4495 -4788.5692 -1868.0639 -4789.6152 -1864.9258 C -4790.6613 -1861.7876 -4791.1836 -1858.6156 -4791.1836 -1855.4121 C -4791.1836 -1851.6202 -4789.5501 -1848.547 -4786.2812 -1846.1934 C -4782.9469 -1843.8398 -4778.8272 -1842.6641 -4773.9238 -1842.6641 C -4767.8436 -1842.6641 -4763.5625 -1844.1019 -4761.0781 -1846.9785 C -4758.5937 -1849.8552 -4757.3516 -1853.6483 -4757.3516 -1858.3555 C -4757.3516 -1866.0701 -4760.8482 -1872.1822 -4767.8438 -1876.6934 C -4774.8392 -1881.2698 -4784.3532 -1883.5586 -4796.3828 -1883.5586 z M -4910.3359 -1836.584 L -4910.7285 -1803.3398 C -4912.4937 -1801.1824 -4914.5527 -1799.3513 -4916.9062 -1797.8477 C -4919.1945 -1796.4093 -4922.1366 -1795.6895 -4925.7324 -1795.6895 C -4929.1321 -1795.6895 -4932.0097 -1796.8329 -4934.3633 -1799.1211 C -4936.6515 -1801.4094 -4937.7949 -1805.1037 -4937.7949 -1810.2031 C -4937.7949 -1814.0605 -4937.1074 -1817.3958 -4935.7344 -1820.207 C -4934.3614 -1823.0836 -4932.4659 -1825.437 -4930.0469 -1827.2676 C -4927.7587 -1829.0328 -4924.8165 -1830.7005 -4921.2207 -1832.2695 C -4917.6249 -1833.904 -4913.9971 -1835.3418 -4910.3359 -1836.584 z "
           style="font-style:normal;font-variant:normal;font-weight:bold;font-stretch:normal;font-family:Georgia;-inkscape-font-specification:'Georgia Bold';fill:#d81111;fill-opacity:1;stroke-width:1.04604995px"
           id="path939"
           d="m -5066.8516,-1935.2402 -48.7382,2.5507 v 7.1583 c 1.9614,0.1306 4.1836,0.4574 6.6679,0.9804 2.4844,0.4577 4.38,1.113 5.6875,1.9629 1.7652,1.1768 3.1385,2.9413 4.1192,5.2949 0.9806,2.3536 1.4707,4.5759 1.4707,6.668 v 109.3457 c 0,2.419 -0.3913,4.3811 -1.1758,5.8848 -0.7191,1.4383 -2.1247,2.5494 -4.2168,3.334 -1.2421,0.4576 -2.6819,0.7843 -4.3164,0.9804 -1.5691,0.1962 -3.2025,0.3595 -4.9024,0.4903 v 7.1582 h 59.625 v -7.1582 c -1.5037,-0.1962 -3.0725,-0.5228 -4.707,-0.9805 -1.5691,-0.4576 -2.8455,-0.9819 -3.8262,-1.5703 -1.6344,-0.9154 -2.7455,-2.0587 -3.3339,-3.4317 -0.5884,-1.4383 -0.8829,-3.3662 -0.8829,-5.7851 v -52.6621 c 0.7846,-1.0461 1.7323,-2.256 2.8438,-3.6289 1.1768,-1.373 2.7134,-2.7139 4.6094,-4.0215 2.1575,-1.5037 4.3475,-2.6471 6.5703,-3.4317 2.2882,-0.7845 4.7403,-1.1777 7.3554,-1.1777 4.6419,0 8.2052,1.6677 10.6895,5.002 2.5497,3.3342 3.8242,8.3675 3.8242,15.1015 v 45.8965 c 0,2.6805 -0.2944,4.7071 -0.8828,6.0801 -0.523,1.3729 -1.4708,2.4195 -2.8437,3.1387 -0.85,0.4576 -2.1567,0.7843 -3.9219,0.9804 -1.7652,0.1962 -3.3018,0.3595 -4.6094,0.4903 v 7.1582 h 59.0371 v -7.1582 c -2.0921,-0.2615 -3.8585,-0.5882 -5.2969,-0.9805 -1.4382,-0.3923 -2.745,-0.8501 -3.9218,-1.3731 -1.9614,-0.8499 -3.3024,-1.9953 -4.0215,-3.4336 -0.7192,-1.4383 -1.0781,-3.3661 -1.0781,-5.7851 v -48.0527 c 0,-9.9375 -2.6801,-17.9472 -8.0411,-24.0274 -5.2956,-6.0801 -13.2388,-9.1191 -23.83,-9.1191 -4.5111,0 -8.7278,0.5546 -12.6504,1.666 -3.8574,1.1114 -6.997,2.4523 -9.416,4.0215 -2.8766,1.8305 -5.3268,3.6616 -7.3536,5.4922 -1.9613,1.7652 -4.1855,3.7595 -6.6699,5.9824 h -0.3926 v -67.4707 z m 362.8496,0 -48.7402,2.5507 v 7.1583 c 2.0267,0.1306 4.2833,0.4574 6.7676,0.9804 2.4844,0.5231 4.3476,1.1784 5.5898,1.9629 1.8306,1.1768 3.202,2.9413 4.1172,5.2949 0.9807,2.2883 1.4727,4.5105 1.4727,6.668 v 109.3457 c 0,2.419 -0.3932,4.3811 -1.1778,5.8848 -0.7191,1.5037 -2.1246,2.6148 -4.2168,3.334 -1.2422,0.3922 -2.68,0.7189 -4.3144,0.9804 -1.6345,0.1962 -3.2698,0.3595 -4.9043,0.4903 v 7.1582 h 60.7051 v -7.1582 c -1.5691,-0.1308 -3.1399,-0.3929 -4.709,-0.7852 -1.5691,-0.3923 -2.9404,-0.85 -4.1172,-1.373 -1.9613,-0.7192 -3.3023,-1.8304 -4.0215,-3.334 -0.6538,-1.5038 -0.9804,-3.4316 -0.9804,-5.7852 v -21.3789 l 5.8828,-5.0019 c 4.1842,5.9494 8.6306,12.4225 13.3379,19.4179 4.7072,6.9301 9.9058,15.3956 15.5937,25.3985 h 46.1895 v -7.1582 c -3.0074,-0.2615 -6.0161,-0.9149 -9.0235,-1.961 -3.0074,-1.046 -5.524,-3.1069 -7.5508,-6.1797 -5.9494,-8.826 -11.6381,-17.1946 -17.0644,-25.1054 -5.4264,-7.9108 -11.3429,-16.5074 -17.75,-25.7911 3.2689,-2.8766 6.1465,-5.2622 8.6308,-7.1582 2.5498,-1.9613 5.1652,-3.8245 7.8457,-5.5898 4.0535,-2.6805 7.7801,-4.8059 11.1797,-6.375 3.4651,-1.6345 8.4661,-3.3667 15.0039,-5.1973 v -6.7675 h -49.8183 v 6.9628 c 4.1188,0.5885 7.192,1.2761 9.2187,2.0606 2.0922,0.7845 3.1387,1.7646 3.1387,2.9414 0,0.2615 -0.131,0.9813 -0.3926,2.1582 -0.1961,1.1114 -1.3738,2.7791 -3.5312,5.002 -3.6612,3.7265 -8.5312,8.4331 -14.6114,14.121 -6.0148,5.688 -11.4414,10.689 -16.2792,15.004 v -101.2051 z m -218.8867,51.6816 c -4.5764,0 -9.5452,0.5565 -14.9062,1.668 -5.361,1.046 -10.1,2.5503 -14.2188,4.5117 -4.1842,1.8959 -7.7474,4.3139 -10.6894,7.2559 -2.8767,2.8766 -4.3164,6.1454 -4.3164,9.8066 0,4.2495 1.4055,7.7159 4.2168,10.3965 2.8112,2.6151 6.9633,3.9219 12.455,3.9219 3.8574,0 6.7007,-0.359 8.5313,-1.0782 1.8959,-0.7191 3.5959,-1.7334 5.0996,-3.041 1.1114,-0.9807 1.9624,-2.2875 2.5508,-3.9219 0.5884,-1.6998 0.8828,-3.1054 0.8828,-4.2168 0,-2.4844 -0.4579,-5.0675 -1.373,-7.748 -0.9153,-2.6805 -1.4719,-4.6749 -1.668,-5.9824 1.1768,-0.85 2.7134,-1.6667 4.6094,-2.4512 1.9613,-0.8499 4.3811,-1.2754 7.2578,-1.2754 3.2035,0 5.7847,0.7199 7.7461,2.1582 1.9613,1.4383 3.4011,3.2029 4.3164,5.2949 0.8499,1.8306 1.4045,4.0871 1.666,6.7676 0.2615,2.6805 0.3926,4.8382 0.3926,6.4727 v 9.414 c -3.792,1.8306 -9.8073,3.9218 -18.045,6.2754 -8.2376,2.2883 -15.2976,4.5125 -21.1816,6.6699 -3.0728,1.1768 -5.916,2.4513 -8.5313,3.8243 -2.5497,1.3729 -4.8062,3.1051 -6.7675,5.1972 -2.1575,2.2882 -3.8252,4.936 -5.002,7.9434 -1.1768,2.942 -1.7637,6.5375 -1.7637,10.7871 0,7.3877 2.6801,13.3366 8.0411,17.8477 5.361,4.4457 11.8321,6.6699 19.416,6.6699 5.0994,0 9.0559,-0.361 11.8672,-1.0801 2.8766,-0.6538 5.8511,-1.6984 8.9238,-3.1367 2.3536,-1.1114 4.5436,-2.4524 6.5703,-4.0215 2.0921,-1.5691 4.2498,-3.4646 6.4727,-5.6875 h 0.5879 c 1.3729,4.4457 3.9561,7.8779 7.748,10.2969 3.7919,2.3536 9.7085,3.5293 17.75,3.5293 4.3803,0 8.5323,-0.5224 12.4551,-1.5684 3.9226,-1.0461 7.3226,-2.1894 10.1992,-3.4316 v -7.1602 c -1.9613,0 -4.1533,-0.032 -6.5723,-0.098 -2.3536,-0.1308 -4.0858,-0.4575 -5.1972,-0.9805 -1.8306,-0.8499 -3.2039,-2.1244 -4.1192,-3.8242 -0.8499,-1.6999 -1.2734,-4.0209 -1.2734,-6.9629 0,-3.2036 0.131,-9.8723 0.3926,-20.0059 0.3268,-10.1336 0.4902,-18.8935 0.4902,-26.2812 0,-6.9955 -1.2099,-12.6518 -3.6289,-16.9668 -2.3536,-4.3804 -5.5579,-7.7138 -9.6113,-10.002 -4.2496,-2.3536 -9.0208,-3.8902 -14.3164,-4.6094 -5.2956,-0.7845 -11.1154,-1.1777 -17.4571,-1.1777 z m 126.5059,0 c -8.5645,0 -16.409,1.4397 -23.5352,4.3164 -7.0608,2.8113 -12.9774,6.6024 -17.75,11.375 -4.6418,4.6418 -8.3361,10.0361 -11.082,16.1817 -2.6805,6.1455 -4.0195,12.6166 -4.0195,19.416 0,7.453 1.1111,14.3517 3.334,20.6933 2.2228,6.3418 5.5885,11.8328 10.0996,16.4746 4.511,4.5765 10.2319,8.2062 17.1621,10.8868 6.9954,2.6151 15.0374,3.9218 24.125,3.9218 5.6225,0 10.559,-0.6856 14.8086,-2.0586 4.2496,-1.3729 8.4339,-3.4015 12.5527,-6.082 3.9227,-2.5497 7.2884,-5.4576 10.0996,-8.7266 2.8113,-3.3342 5.2311,-6.9963 7.2578,-10.9843 l -7.3554,-5.0996 c -3.3343,5.9494 -7.1597,10.5592 -11.4747,13.8281 -4.2495,3.2035 -10.0027,4.8047 -17.2597,4.8047 -7.5839,0 -14.1216,-3.5632 -19.6133,-10.6895 -5.4264,-7.1262 -8.1387,-16.5072 -8.1387,-28.1445 0,-7.7147 0.5888,-14.3188 1.7657,-19.8106 1.2421,-5.4918 2.8756,-9.8717 4.9023,-13.1406 2.0921,-3.4651 4.3486,-5.8829 6.7676,-7.2558 2.419,-1.373 5.099,-2.0606 8.041,-2.0606 2.3536,0 4.0858,0.3267 5.1973,0.9805 1.1114,0.5884 2.0269,1.4716 2.746,2.6484 -0.1961,1.6345 -0.8172,4.0201 -1.8632,7.1582 -1.0461,3.1382 -1.5684,6.3102 -1.5684,9.5137 0,3.7919 1.6335,6.8651 4.9024,9.2187 3.3343,2.3536 7.454,3.5293 12.3574,3.5293 6.0802,0 10.3613,-1.4378 12.8457,-4.3144 2.4844,-2.8767 3.7265,-6.6698 3.7265,-11.377 0,-7.7146 -3.4966,-13.8267 -10.4922,-18.3379 -6.9954,-4.5764 -16.5094,-6.8652 -28.539,-6.8652 z m -113.9531,46.9746 -0.3926,33.2442 c -1.7652,2.1574 -3.8242,3.9885 -6.1777,5.4921 -2.2883,1.4384 -5.2304,2.1582 -8.8262,2.1582 -3.3997,0 -6.2773,-1.1434 -8.6309,-3.4316 -2.2882,-2.2883 -3.4316,-5.9826 -3.4316,-11.082 0,-3.8574 0.6875,-7.1927 2.0605,-10.0039 1.373,-2.8766 3.2685,-5.23 5.6875,-7.0606 2.2882,-1.7652 5.2304,-3.4329 8.8262,-5.0019 3.5958,-1.6345 7.2236,-3.0723 10.8848,-4.3145 z" />
      </g>
    </g>
  </g>
</svg>
